<svg id="Layer_1" data-name="Layer 1" xmlns="http://www.w3.org/2000/svg" viewBox="0 0 32 32"><defs><style>.cls-1{fill:#ff5733;}.cls-2{fill:#fff;}</style></defs><title>Mesa de trabajo 4</title><rect class="cls-1" x="-0.77" width="34.19" height="32" rx="6.5"/><path class="cls-2" d="M10.41,15.47c3.83-1.71,4.74-4.21,4.74-4.21l-7.83.35,0-3,7.8-.35c.29-.09.63,6.8.63,6.8l8.13.37a9.22,9.22,0,0,0,4.68-4.26l-8,.34.21-2.83,0-.36.76,0L30.16,8c2.55-1.92.52-5,.52-5L20.11,4.79C17.7.69,14.74,3.63,14.74,3.63c-1.31,0-7.84,1.28-7.84,1.28l-.26-.26C4.9,1.83,1.5,3.2,1.5,3.2L2.45,17A35,35,0,0,1,10.41,15.47Z"/><path class="cls-2" d="M32.74,21.5a50.7,50.7,0,0,1,10.57,5C39,22.53,30,19.77,30,19.77c1.16-.43,4.85.93,4.85.93a2.67,2.67,0,0,0-.23-.51c4,.77,10.07,5.27,8,3.65A14.15,14.15,0,0,0,39,21.63l2.49.76c-28.63-13.19-49.25,0-49.25,0A39,39,0,0,1,2.35,20L2.77,28c3.72-3,3.66-4.72,3.66-4.72l.16-3.91,9.27-.14L16,28c2.27-2,2.39-2,3.73-4.6l.44-3.71a38.9,38.9,0,0,1,13.41,2.75A3,3,0,0,0,32.74,21.5Z"/></svg>